---
config:
    class:
        hideEmptyMembersBox: true
---

classDiagram
    class `components/base-object-properties-1.1.0`:::schemaComponent {
        name: string
        uuid: components/base-object-properties-1.1.0-uuid
        description: string
        extensions: object
        tags: object
        lineage: components/lineage-1.0.0
    }
    class `components/base-spatial-data-properties-1.1.0`:::schemaComponent {
        name: string*
        uuid: components/base-object-properties-1.1.0-uuid*
        description: string*
        extensions: object*
        tags: object*
        lineage: components/lineage-1.0.0*
        bounding_box: components/bounding-box-1.0.1
        coordinate_reference_system: components/crs-1.0.1
    }
    `components/base-object-properties-1.1.0` <|-- `components/base-spatial-data-properties-1.1.0`
    class `objects/time-domain-electromagnetic-2.0.0`:::schemaObject {
        name: string*
        uuid: components/base-object-properties-1.1.0-uuid*
        description: string*
        extensions: object*
        tags: object*
        lineage: components/lineage-1.0.0*
        bounding_box: components/bounding-box-1.0.1*
        coordinate_reference_system: components/crs-1.0.1*
        survey: objects/time-domain-electromagnetic-2.0.0-survey
        geometry_category: string
        gps: elements/coordinates-3d-1.0.0
        waveforms: components/time-domain-electromagnetic-waveform-1.0.0
        frame_geometry: components/time-domain-electromagnetic-frame-geometry-1.0.0
        time_gates: components/time-domain-electromagnetic-time-gates-1.0.0
        configurations: array
        attribute_definition_list: array
        collections: array
    }
    `components/base-spatial-data-properties-1.1.0` <|-- `objects/time-domain-electromagnetic-2.0.0`
    `components/base-object-properties-1.1.0` *-- `components/base-object-properties-1.1.0-uuid` : ref uuid*
    `components/base-object-properties-1.1.0` *-- `components/lineage-1.0.0` : ref lineage*
    `components/base-spatial-data-properties-1.1.0` *-- `components/bounding-box-1.0.1` : ref bounding_box*
    `components/base-spatial-data-properties-1.1.0` *-- `components/crs-1.0.1` : ref coordinate_reference_system*
    `objects/time-domain-electromagnetic-2.0.0` *-- `objects/time-domain-electromagnetic-2.0.0-survey` : ref survey*
    `objects/time-domain-electromagnetic-2.0.0` *-- `elements/coordinates-3d-1.0.0` : ref gps*
    `objects/time-domain-electromagnetic-2.0.0` *-- `components/time-domain-electromagnetic-waveform-1.0.0` : ref waveforms*
    `objects/time-domain-electromagnetic-2.0.0` *-- `components/time-domain-electromagnetic-frame-geometry-1.0.0` : ref frame_geometry*
    `objects/time-domain-electromagnetic-2.0.0` *-- `components/time-domain-electromagnetic-time-gates-1.0.0` : ref time_gates*
    class `components/base-object-properties-1.1.0-uuid`:::schemaImplicit {
    }
    class `components/lineage-1.0.0`:::schemaComponent {
        self_link: string
        events: array
    }
    class `components/bounding-box-1.0.1`:::schemaComponent {
        min_x: number
        max_x: number
        min_y: number
        max_y: number
        min_z: number
        max_z: number
    }
    class `components/crs-1.0.1`:::schemaComponent {
    }
    class `objects/time-domain-electromagnetic-2.0.0-survey`:::schemaImplicit {
        type: string
    }
    class `elements/coordinates-3d-1.0.0`:::schemaElement {
        x: number
        y: number
        z: number
    }
    class `components/time-domain-electromagnetic-waveform-1.0.0`:::schemaComponent {
        cycle_duration: number
        sampling_time: number
        type: string
        waveforms: array
        system_responses: array
    }
    class `components/time-domain-electromagnetic-frame-geometry-1.0.0`:::schemaComponent {
        name: string
        transmitters: array
        receivers: array
    }
    class `components/time-domain-electromagnetic-time-gates-1.0.0`:::schemaComponent {
        id: number
        open: array
        close: array
    }
