---
config:
    class:
        hideEmptyMembersBox: true
---

classDiagram
    class `components/base-object-properties-1.1.0`:::schemaComponent {
        name: string
        uuid: components/base-object-properties-1.1.0-uuid
        description: string
        extensions: object
        tags: object
        lineage: components/lineage-1.0.0
    }
    class `components/base-spatial-data-properties-1.1.1`:::schemaComponent {
        name: string*
        uuid: components/base-object-properties-1.1.0-uuid*
        description: string*
        extensions: object*
        tags: object*
        lineage: components/lineage-1.0.0*
        bounding_box: components/bounding-box-1.0.2
        coordinate_reference_system: components/crs-1.0.1
    }
    `components/base-object-properties-1.1.0` <|-- `components/base-spatial-data-properties-1.1.1`
    class `objects/radiometric-2.0.1`:::schemaObject {
        name: string*
        uuid: components/base-object-properties-1.1.0-uuid*
        description: string*
        extensions: object*
        tags: object*
        lineage: components/lineage-1.0.0*
        bounding_box: components/bounding-box-1.0.2*
        coordinate_reference_system: components/crs-1.0.1*
        survey: objects/radiometric-2.0.1-survey
        sample_time: number
        array_dimension: integer
        energy_level: number
        attribute_definition_list: array
        collections: array
    }
    `components/base-spatial-data-properties-1.1.1` <|-- `objects/radiometric-2.0.1`
    `components/base-object-properties-1.1.0` *-- `components/base-object-properties-1.1.0-uuid` : ref uuid*
    `components/base-object-properties-1.1.0` *-- `components/lineage-1.0.0` : ref lineage*
    `components/base-spatial-data-properties-1.1.1` *-- `components/bounding-box-1.0.2` : ref bounding_box*
    `components/base-spatial-data-properties-1.1.1` *-- `components/crs-1.0.1` : ref coordinate_reference_system*
    `objects/radiometric-2.0.1` *-- `objects/radiometric-2.0.1-survey` : ref survey*
    class `components/base-object-properties-1.1.0-uuid`:::schemaImplicit {
    }
    class `components/lineage-1.0.0`:::schemaComponent {
        self_link: string
        events: array
    }
    class `components/bounding-box-1.0.2`:::schemaComponent {
        min_x: number
        max_x: number
        min_y: number
        max_y: number
        min_z: number
        max_z: number
    }
    class `components/crs-1.0.1`:::schemaComponent {
    }
    class `objects/radiometric-2.0.1-survey`:::schemaImplicit {
        type: string
    }
